<?xml version="1.0" encoding="utf-8"?>
<!-- Generator: Adobe Illustrator 16.0.0, SVG Export Plug-In . SVG Version: 6.00 Build 0)  -->
<!DOCTYPE svg PUBLIC "-//W3C//DTD SVG 1.1//EN" "http://www.w3.org/Graphics/SVG/1.1/DTD/svg11.dtd">
<svg version="1.1" id="Layer_1" xmlns="http://www.w3.org/2000/svg" xmlns:xlink="http://www.w3.org/1999/xlink" x="0px" y="0px"
	 width="256px" height="256px" viewBox="0 0 256 256" enable-background="new 0 0 256 256" xml:space="preserve">
<g opacity="0.7">
	<rect fill="none" width="256" height="256"/>
	<g>
		<path fill="#A7D56E" d="M164.335,180h-72.85c-0.828,0-1.5-0.672-1.5-1.5s0.672-1.5,1.5-1.5h72.85c0.828,0,1.5,0.672,1.5,1.5
			S165.163,180,164.335,180z"/>
		<path fill="#A7D56E" d="M228.693,180h-19.649c-0.828,0-1.5-0.672-1.5-1.5s0.672-1.5,1.5-1.5h19.649
			c4.499,0,8.307-4.136,8.307-8.634v-28.079c0-3.733-9.531-25.283-24.754-56.194c-1.844-3.741-5.654-6.093-9.825-6.093H163.67
			c-0.828,0-1.67-0.617-1.67-1.445V66.171c0-2.215-0.777-4.239-2.344-5.805c-1.564-1.563-3.559-2.366-5.77-2.366
			c-0.002,0-0.004,0-0.005,0L26.408,58.032c-4.567,0-8.408,3.656-8.408,8.222v102.112c0,4.498,3.912,8.634,8.41,8.634h20.367
			c0.828,0,1.5,0.672,1.5,1.5s-0.672,1.5-1.5,1.5H26.41C20.259,180,15,174.519,15,168.366V66.254c0-6.22,5.187-11.222,11.407-11.222
			L153.88,55c0.002,0,0.004,0,0.006,0c3.014,0,5.761,1.114,7.892,3.245c2.133,2.132,3.223,4.909,3.223,7.926V75h37.421
			c5.321,0,10.163,2.993,12.517,7.768c9.332,18.95,25.062,51.646,25.062,57.52v28.079C240,174.519,234.847,180,228.693,180z"/>
		<path fill="#A7D56E" d="M164.335,180h-72.85c-0.828,0-1.5-0.672-1.5-1.5s0.672-1.5,1.5-1.5h72.85c0.828,0,1.5,0.672,1.5,1.5
			S165.163,180,164.335,180z"/>
		<path fill="#A7D56E" d="M69.132,201.882c-13.153,0-23.854-10.702-23.854-23.857c0-13.151,10.701-23.853,23.854-23.853
			c13.152,0,23.854,10.701,23.854,23.853C92.985,191.18,82.284,201.882,69.132,201.882z M69.132,157.172
			c-11.499,0-20.854,9.354-20.854,20.853c0,11.501,9.355,20.857,20.854,20.857c11.498,0,20.854-9.356,20.854-20.857
			C89.985,166.526,80.63,157.172,69.132,157.172z"/>
		<path fill="#A7D56E" d="M186.689,201.882c-13.153,0-23.854-10.702-23.854-23.857c0-13.151,10.701-23.853,23.854-23.853
			c13.151,0,23.851,10.701,23.851,23.853C210.54,191.18,199.841,201.882,186.689,201.882z M186.689,157.172
			c-11.499,0-20.854,9.354-20.854,20.853c0,11.501,9.355,20.857,20.854,20.857c11.497,0,20.851-9.356,20.851-20.857
			C207.54,166.526,198.187,157.172,186.689,157.172z"/>
		<path fill="#A7D56E" d="M186.685,187.259c-5.09,0-9.23-4.143-9.23-9.234c0-5.09,4.141-9.23,9.23-9.23
			c5.092,0,9.234,4.141,9.234,9.23C195.919,183.116,191.776,187.259,186.685,187.259z M186.685,171.794
			c-3.436,0-6.23,2.795-6.23,6.23c0,3.438,2.795,6.234,6.23,6.234c3.438,0,6.234-2.797,6.234-6.234
			C192.919,174.589,190.122,171.794,186.685,171.794z"/>
		<path fill="#A7D56E" d="M69.132,187.077c-4.991,0-9.051-4.062-9.051-9.053c0-4.99,4.06-9.051,9.051-9.051
			c4.99,0,9.051,4.061,9.051,9.051C78.183,183.016,74.122,187.077,69.132,187.077z M69.132,171.974
			c-3.337,0-6.051,2.715-6.051,6.051c0,3.338,2.714,6.053,6.051,6.053c3.336,0,6.051-2.715,6.051-6.053
			C75.183,174.688,72.468,171.974,69.132,171.974z"/>
		<path fill="#A7D56E" d="M219.462,129c-0.005,0-0.012,0-0.02,0h-43.387c-0.828,0-1.056-0.78-1.056-1.609V89.16
			c0-0.829,0.228-1.16,1.056-1.16h22.043c2.765,0,5.305,1.45,6.47,3.957l16.14,34.683c0.161,0.239,0.254,0.539,0.254,0.848
			C220.962,128.317,220.291,129,219.462,129z M178,126h39.093l-15.245-32.725c-0.675-1.452-2.146-2.275-3.749-2.275H178V126z"/>
		<path fill="#A7D56E" d="M163.67,141H18.222c-0.829,0-1.5-0.671-1.5-1.5c0-0.828,0.671-1.5,1.5-1.5H162V76.552
			c0-0.829,0.672-1.5,1.5-1.5s1.5,0.671,1.5,1.5v63.419C165,140.8,164.498,141,163.67,141z"/>
	</g>
</g>
</svg>
